<?xml version="1.0" standalone="no"?>
<svg xmlns:xlink="http://www.w3.org/1999/xlink" id="wave" style="transform:rotate(0deg); transition: 0.3s" viewBox="0 0 1440 100" version="1.1" xmlns="http://www.w3.org/2000/svg"><defs><linearGradient id="sw-gradient-0" x1="0" x2="0" y1="1" y2="0"><stop stop-color="rgba(236.944, 236.944, 236.944, 1)" offset="0%"/><stop stop-color="rgba(239.221, 239.221, 239.221, 1)" offset="100%"/></linearGradient></defs><path style="transform:translate(0, 0px); opacity:1" fill="url(#sw-gradient-0)" d="M0,30L240,28.3C480,27,960,23,1440,26.7C1920,30,2400,40,2880,43.3C3360,47,3840,43,4320,40C4800,37,5280,33,5760,33.3C6240,33,6720,37,7200,36.7C7680,37,8160,33,8640,38.3C9120,43,9600,57,10080,63.3C10560,70,11040,70,11520,73.3C12000,77,12480,83,12960,76.7C13440,70,13920,50,14400,40C14880,30,15360,30,15840,36.7C16320,43,16800,57,17280,65C17760,73,18240,77,18720,78.3C19200,80,19680,80,20160,70C20640,60,21120,40,21600,28.3C22080,17,22560,13,23040,18.3C23520,23,24000,37,24480,46.7C24960,57,25440,63,25920,66.7C26400,70,26880,70,27360,70C27840,70,28320,70,28800,66.7C29280,63,29760,57,30240,56.7C30720,57,31200,63,31680,66.7C32160,70,32640,70,33120,66.7C33600,63,34080,57,34320,53.3L34560,50L34560,100L34320,100C34080,100,33600,100,33120,100C32640,100,32160,100,31680,100C31200,100,30720,100,30240,100C29760,100,29280,100,28800,100C28320,100,27840,100,27360,100C26880,100,26400,100,25920,100C25440,100,24960,100,24480,100C24000,100,23520,100,23040,100C22560,100,22080,100,21600,100C21120,100,20640,100,20160,100C19680,100,19200,100,18720,100C18240,100,17760,100,17280,100C16800,100,16320,100,15840,100C15360,100,14880,100,14400,100C13920,100,13440,100,12960,100C12480,100,12000,100,11520,100C11040,100,10560,100,10080,100C9600,100,9120,100,8640,100C8160,100,7680,100,7200,100C6720,100,6240,100,5760,100C5280,100,4800,100,4320,100C3840,100,3360,100,2880,100C2400,100,1920,100,1440,100C960,100,480,100,240,100L0,100Z"/></svg>